<svg width="24" height="25" viewBox="0 0 24 25" fill="none" xmlns="http://www.w3.org/2000/svg">
<path d="M3.00024 3.5L6.5894 7.08916M21.0002 21.5L17.4114 17.9112M13.8751 19.3246C13.268 19.4398 12.6414 19.5 12.0007 19.5C7.52305 19.5 3.73275 16.5571 2.4585 12.5C2.80539 11.3955 3.33875 10.3736 4.02168 9.47118M9.87892 10.3787C10.4218 9.83579 11.1718 9.5 12.0002 9.5C13.6571 9.5 15.0002 10.8431 15.0002 12.5C15.0002 13.3284 14.6645 14.0784 14.1216 14.6213M9.87892 10.3787L14.1216 14.6213M9.87892 10.3787L6.5894 7.08916M14.1216 14.6213L6.5894 7.08916M14.1216 14.6213L17.4114 17.9112M6.5894 7.08916C8.14922 6.08354 10.0068 5.5 12.0007 5.5C16.4783 5.5 20.2686 8.44291 21.5429 12.5C20.836 14.7507 19.3548 16.6585 17.4114 17.9112" stroke="#ADB5BD" stroke-width="2" stroke-linecap="round" stroke-linejoin="round"/>
</svg>
