<svg width="90" height="90" viewBox="0 0 90 90" fill="none" xmlns="http://www.w3.org/2000/svg">
<path d="M19.2039 66.764C26.8225 62.4577 35.6242 60 45 60C54.3758 60 63.1775 62.4577 70.7961 66.764M56.25 37.5C56.25 43.7132 51.2132 48.75 45 48.75C38.7868 48.75 33.75 43.7132 33.75 37.5C33.75 31.2868 38.7868 26.25 45 26.25C51.2132 26.25 56.25 31.2868 56.25 37.5ZM78.75 45C78.75 63.6396 63.6396 78.75 45 78.75C26.3604 78.75 11.25 63.6396 11.25 45C11.25 26.3604 26.3604 11.25 45 11.25C63.6396 11.25 78.75 26.3604 78.75 45Z" stroke="#6DB3C5" stroke-width="2" stroke-linecap="round" stroke-linejoin="round"/>
</svg>
